<mxfile host="app.diagrams.net" modified="2023-01-18T17:50:47.093Z" agent="5.0 (X11; Linux x86_64) AppleWebKit/537.36 (KHTML, like Gecko) Chrome/109.0.0.0 Safari/537.36" version="20.8.5" etag="-zNwitO6AjXlmIcXDFXe" type="github">
  <diagram id="KDcf2nXJB1mKlAuJqFb7" name="Page-1">
    <mxGraphModel dx="1247" dy="697" grid="1" gridSize="10" guides="1" tooltips="1" connect="1" arrows="1" fold="1" page="1" pageScale="1" pageWidth="827" pageHeight="1169" math="0" shadow="0">
      <root>
        <mxCell id="0" />
        <mxCell id="1" parent="0" />
        <mxCell id="jLuUw6s6XqRlDvAC9cUW-1" value="Device:&lt;br&gt;Intel NUC" style="rounded=0;whiteSpace=wrap;html=1;fillColor=#fff2cc;strokeColor=#d6b656;opacity=50;verticalAlign=top;" vertex="1" parent="1">
          <mxGeometry x="120" y="330" width="680" height="190" as="geometry" />
        </mxCell>
        <mxCell id="jLuUw6s6XqRlDvAC9cUW-59" style="edgeStyle=orthogonalEdgeStyle;rounded=0;sketch=0;orthogonalLoop=1;jettySize=auto;html=1;exitX=0.781;exitY=0.004;exitDx=0;exitDy=0;entryX=0.75;entryY=1;entryDx=0;entryDy=0;shadow=0;strokeColor=#ff3333;fontSize=7;fontColor=#000000;startArrow=none;startFill=0;targetPerimeterSpacing=0;fillColor=#f8cecc;exitPerimeter=0;" edge="1" parent="1" target="jLuUw6s6XqRlDvAC9cUW-4">
          <mxGeometry relative="1" as="geometry">
            <mxPoint x="729.9200000000003" y="640.8000000000002" as="sourcePoint" />
            <Array as="points" />
          </mxGeometry>
        </mxCell>
        <mxCell id="jLuUw6s6XqRlDvAC9cUW-9" style="edgeStyle=orthogonalEdgeStyle;rounded=0;sketch=0;orthogonalLoop=1;jettySize=auto;html=1;exitX=0.25;exitY=1;exitDx=0;exitDy=0;shadow=0;startArrow=none;startFill=0;targetPerimeterSpacing=0;fillColor=#f8cecc;strokeColor=#FF3333;entryX=0.594;entryY=-0.009;entryDx=0;entryDy=0;entryPerimeter=0;" edge="1" parent="1" source="jLuUw6s6XqRlDvAC9cUW-4">
          <mxGeometry relative="1" as="geometry">
            <mxPoint x="670.0799999999999" y="638.2" as="targetPoint" />
          </mxGeometry>
        </mxCell>
        <mxCell id="jLuUw6s6XqRlDvAC9cUW-58" style="edgeStyle=orthogonalEdgeStyle;rounded=0;sketch=0;orthogonalLoop=1;jettySize=auto;html=1;shadow=0;strokeColor=#ff3333;fontSize=7;fontColor=#000000;startArrow=none;startFill=0;targetPerimeterSpacing=0;fillColor=#f8cecc;entryX=0.688;entryY=0;entryDx=0;entryDy=0;entryPerimeter=0;" edge="1" parent="1" source="jLuUw6s6XqRlDvAC9cUW-4">
          <mxGeometry relative="1" as="geometry">
            <mxPoint x="700.1600000000001" y="640" as="targetPoint" />
          </mxGeometry>
        </mxCell>
        <mxCell id="jLuUw6s6XqRlDvAC9cUW-4" value="Module:&lt;br&gt;ros_arduino_bridge" style="rounded=0;whiteSpace=wrap;html=1;fillColor=#f8cecc;opacity=50;strokeColor=#b85450;enumerate=1;" vertex="1" parent="1">
          <mxGeometry x="640" y="402" width="120" height="60" as="geometry" />
        </mxCell>
        <mxCell id="jLuUw6s6XqRlDvAC9cUW-10" value="&lt;font color=&quot;#cc0000&quot;&gt;heading_est&lt;br&gt;std_msgs/Float32&lt;/font&gt;" style="text;html=1;align=center;verticalAlign=middle;resizable=0;points=[];autosize=1;rotation=-30;labelBackgroundColor=default;" vertex="1" parent="1">
          <mxGeometry x="560" y="540" width="120" height="40" as="geometry" />
        </mxCell>
        <mxCell id="jLuUw6s6XqRlDvAC9cUW-24" style="edgeStyle=orthogonalEdgeStyle;rounded=0;sketch=0;orthogonalLoop=1;jettySize=auto;html=1;shadow=0;startArrow=none;startFill=0;targetPerimeterSpacing=0;fillColor=#f8cecc;strokeColor=#FF3333;entryX=0.188;entryY=0;entryDx=0;entryDy=0;entryPerimeter=0;" edge="1" parent="1" source="jLuUw6s6XqRlDvAC9cUW-11">
          <mxGeometry relative="1" as="geometry">
            <mxPoint x="540.1600000000001" y="640" as="targetPoint" />
          </mxGeometry>
        </mxCell>
        <mxCell id="jLuUw6s6XqRlDvAC9cUW-11" value="Module:&lt;br&gt;ros_reach_bridge" style="rounded=0;whiteSpace=wrap;html=1;fillColor=#f8cecc;opacity=50;strokeColor=#b85450;enumerate=1;" vertex="1" parent="1">
          <mxGeometry x="480" y="402" width="120" height="60" as="geometry" />
        </mxCell>
        <mxCell id="jLuUw6s6XqRlDvAC9cUW-28" style="edgeStyle=orthogonalEdgeStyle;rounded=0;sketch=0;orthogonalLoop=1;jettySize=auto;html=1;entryX=0.75;entryY=0;entryDx=0;entryDy=0;shadow=0;fontSize=12;startArrow=none;startFill=0;targetPerimeterSpacing=0;" edge="1" parent="1" source="jLuUw6s6XqRlDvAC9cUW-12" target="jLuUw6s6XqRlDvAC9cUW-26">
          <mxGeometry relative="1" as="geometry" />
        </mxCell>
        <mxCell id="jLuUw6s6XqRlDvAC9cUW-12" value="Module:&lt;br&gt;Camera node" style="rounded=0;whiteSpace=wrap;html=1;fillColor=#f8cecc;opacity=50;strokeColor=#b85450;enumerate=1;" vertex="1" parent="1">
          <mxGeometry x="301" y="402" width="120" height="60" as="geometry" />
        </mxCell>
        <mxCell id="jLuUw6s6XqRlDvAC9cUW-43" style="edgeStyle=orthogonalEdgeStyle;rounded=0;sketch=0;orthogonalLoop=1;jettySize=auto;html=1;entryX=0.25;entryY=0;entryDx=0;entryDy=0;shadow=0;strokeColor=#000000;fontSize=12;fontColor=#CC0000;startArrow=classic;startFill=1;targetPerimeterSpacing=0;" edge="1" parent="1" source="jLuUw6s6XqRlDvAC9cUW-13" target="jLuUw6s6XqRlDvAC9cUW-26">
          <mxGeometry relative="1" as="geometry" />
        </mxCell>
        <mxCell id="jLuUw6s6XqRlDvAC9cUW-13" value="Automatic module:&lt;br&gt;Boat Daemon&lt;br&gt;System initialization /&amp;nbsp;&lt;br&gt;VPN startup" style="rounded=0;whiteSpace=wrap;html=1;fillColor=#f8cecc;opacity=50;strokeColor=#b85450;enumerate=1;" vertex="1" parent="1">
          <mxGeometry x="141" y="402" width="120" height="60" as="geometry" />
        </mxCell>
        <mxCell id="jLuUw6s6XqRlDvAC9cUW-23" style="edgeStyle=orthogonalEdgeStyle;rounded=0;sketch=0;orthogonalLoop=1;jettySize=auto;html=1;shadow=0;startArrow=classic;startFill=1;targetPerimeterSpacing=0;" edge="1" parent="1" source="jLuUw6s6XqRlDvAC9cUW-15" target="jLuUw6s6XqRlDvAC9cUW-4">
          <mxGeometry relative="1" as="geometry" />
        </mxCell>
        <mxCell id="jLuUw6s6XqRlDvAC9cUW-52" style="edgeStyle=orthogonalEdgeStyle;rounded=0;sketch=0;orthogonalLoop=1;jettySize=auto;html=1;exitX=0.75;exitY=0;exitDx=0;exitDy=0;shadow=0;strokeColor=#000000;fontSize=7;fontColor=#000000;startArrow=none;startFill=0;targetPerimeterSpacing=0;" edge="1" parent="1" source="jLuUw6s6XqRlDvAC9cUW-15" target="jLuUw6s6XqRlDvAC9cUW-50">
          <mxGeometry relative="1" as="geometry" />
        </mxCell>
        <mxCell id="jLuUw6s6XqRlDvAC9cUW-15" value="Device:&amp;nbsp;&amp;nbsp;&lt;br&gt;Arduino Mega&lt;br&gt;Low-level-control" style="rounded=0;whiteSpace=wrap;html=1;fillColor=#fff2cc;opacity=50;strokeColor=#d6b656;enumerate=1;" vertex="1" parent="1">
          <mxGeometry x="640" y="240" width="120" height="60" as="geometry" />
        </mxCell>
        <mxCell id="jLuUw6s6XqRlDvAC9cUW-21" style="edgeStyle=orthogonalEdgeStyle;rounded=0;sketch=0;orthogonalLoop=1;jettySize=auto;html=1;entryX=0.5;entryY=0;entryDx=0;entryDy=0;shadow=0;startArrow=none;startFill=0;targetPerimeterSpacing=0;" edge="1" parent="1" source="jLuUw6s6XqRlDvAC9cUW-17" target="jLuUw6s6XqRlDvAC9cUW-11">
          <mxGeometry relative="1" as="geometry" />
        </mxCell>
        <mxCell id="jLuUw6s6XqRlDvAC9cUW-17" value="Device:&amp;nbsp;&amp;nbsp;&lt;br&gt;Emlid M2+&lt;br&gt;DGNSS" style="rounded=0;whiteSpace=wrap;html=1;fillColor=#fff2cc;opacity=50;strokeColor=#d6b656;" vertex="1" parent="1">
          <mxGeometry x="480" y="240" width="120" height="60" as="geometry" />
        </mxCell>
        <mxCell id="jLuUw6s6XqRlDvAC9cUW-22" style="edgeStyle=orthogonalEdgeStyle;rounded=0;sketch=0;orthogonalLoop=1;jettySize=auto;html=1;shadow=0;startArrow=none;startFill=0;targetPerimeterSpacing=0;" edge="1" parent="1" source="jLuUw6s6XqRlDvAC9cUW-19" target="jLuUw6s6XqRlDvAC9cUW-12">
          <mxGeometry relative="1" as="geometry" />
        </mxCell>
        <mxCell id="jLuUw6s6XqRlDvAC9cUW-19" value="Device:&amp;nbsp;&amp;nbsp;&lt;br&gt;Realsense Sterio&lt;br&gt;camera" style="rounded=0;whiteSpace=wrap;html=1;fillColor=#fff2cc;opacity=50;strokeColor=#d6b656;" vertex="1" parent="1">
          <mxGeometry x="301" y="240" width="120" height="60" as="geometry" />
        </mxCell>
        <mxCell id="jLuUw6s6XqRlDvAC9cUW-25" value="&lt;font color=&quot;#cc0000&quot;&gt;geopos_est&lt;br&gt;sensor_msgs/SatNavFix&lt;/font&gt;" style="text;html=1;align=center;verticalAlign=middle;resizable=0;points=[];autosize=1;rotation=-30;labelBackgroundColor=default;" vertex="1" parent="1">
          <mxGeometry x="450" y="540" width="150" height="40" as="geometry" />
        </mxCell>
        <mxCell id="jLuUw6s6XqRlDvAC9cUW-26" value="Web interface&lt;br&gt;&lt;br&gt;- Display map with ships&lt;br&gt;- Display NUC status&lt;br&gt;- Display NUC IP&#39;s within VPN&lt;br&gt;- Display Ship GPS Status&lt;br&gt;- Turn NUC&#39;s off or reboot&lt;br&gt;- Display ROS topic stream for convenient debugging" style="rounded=0;whiteSpace=wrap;html=1;fillColor=#ffe6cc;opacity=50;strokeColor=#d79b00;verticalAlign=top;enumerate=1;" vertex="1" parent="1">
          <mxGeometry x="120" y="640" width="320" height="200" as="geometry" />
        </mxCell>
        <mxCell id="jLuUw6s6XqRlDvAC9cUW-30" value="Camera&lt;br&gt;Stream" style="text;html=1;align=center;verticalAlign=middle;resizable=0;points=[];autosize=1;strokeColor=none;fillColor=none;fontSize=12;labelBackgroundColor=default;" vertex="1" parent="1">
          <mxGeometry x="326" y="545" width="70" height="40" as="geometry" />
        </mxCell>
        <mxCell id="jLuUw6s6XqRlDvAC9cUW-31" value="&lt;font color=&quot;#cc0000&quot;&gt;Telemetry&lt;br style=&quot;border-color: var(--border-color);&quot;&gt;&lt;span style=&quot;&quot;&gt;std_msgs/Float32MulitArray&lt;/span&gt;&lt;/font&gt;" style="text;html=1;align=center;verticalAlign=middle;resizable=0;points=[];autosize=1;fontSize=12;rotation=-30;labelBackgroundColor=default;" vertex="1" parent="1">
          <mxGeometry x="610" y="565" width="170" height="40" as="geometry" />
        </mxCell>
        <mxCell id="jLuUw6s6XqRlDvAC9cUW-37" value="" style="endArrow=classic;html=1;rounded=0;shadow=0;sketch=0;strokeColor=#FF3333;fontSize=12;fontColor=#CC0000;targetPerimeterSpacing=0;" edge="1" parent="1">
          <mxGeometry width="50" height="50" relative="1" as="geometry">
            <mxPoint x="400" y="580" as="sourcePoint" />
            <mxPoint x="400" y="640" as="targetPoint" />
          </mxGeometry>
        </mxCell>
        <mxCell id="jLuUw6s6XqRlDvAC9cUW-44" value="&lt;font color=&quot;#000000&quot;&gt;Ship&amp;nbsp;&lt;br&gt;Diagnostics&lt;br&gt;turn on/off&lt;/font&gt;" style="text;html=1;align=center;verticalAlign=middle;resizable=0;points=[];autosize=1;strokeColor=none;fillColor=none;fontSize=12;fontColor=#CC0000;labelBackgroundColor=default;" vertex="1" parent="1">
          <mxGeometry x="156" y="545" width="90" height="60" as="geometry" />
        </mxCell>
        <mxCell id="jLuUw6s6XqRlDvAC9cUW-48" style="edgeStyle=orthogonalEdgeStyle;rounded=0;sketch=0;orthogonalLoop=1;jettySize=auto;html=1;entryX=0.25;entryY=0;entryDx=0;entryDy=0;shadow=0;strokeColor=#000000;fontSize=7;fontColor=#000000;startArrow=none;startFill=0;targetPerimeterSpacing=0;" edge="1" parent="1" source="jLuUw6s6XqRlDvAC9cUW-47" target="jLuUw6s6XqRlDvAC9cUW-15">
          <mxGeometry relative="1" as="geometry" />
        </mxCell>
        <mxCell id="jLuUw6s6XqRlDvAC9cUW-47" value="&lt;font style=&quot;font-size: 7px;&quot;&gt;Device:&amp;nbsp;&amp;nbsp;&lt;br&gt;BNO055&amp;nbsp;&lt;br&gt;Heading sensor&lt;/font&gt;" style="rounded=0;whiteSpace=wrap;html=1;fillColor=#fff2cc;opacity=50;strokeColor=#d6b656;" vertex="1" parent="1">
          <mxGeometry x="630" y="100" width="40" height="60" as="geometry" />
        </mxCell>
        <mxCell id="jLuUw6s6XqRlDvAC9cUW-51" style="edgeStyle=orthogonalEdgeStyle;rounded=0;sketch=0;orthogonalLoop=1;jettySize=auto;html=1;entryX=0.5;entryY=0;entryDx=0;entryDy=0;shadow=0;strokeColor=#000000;fontSize=7;fontColor=#000000;startArrow=none;startFill=0;targetPerimeterSpacing=0;" edge="1" parent="1" source="jLuUw6s6XqRlDvAC9cUW-49" target="jLuUw6s6XqRlDvAC9cUW-15">
          <mxGeometry relative="1" as="geometry" />
        </mxCell>
        <mxCell id="jLuUw6s6XqRlDvAC9cUW-49" value="&lt;font style=&quot;font-size: 7px;&quot;&gt;Devices:&amp;nbsp;&amp;nbsp;&lt;br&gt;2x Optical&lt;br&gt;Encoders&lt;br&gt;&lt;/font&gt;" style="rounded=0;whiteSpace=wrap;html=1;fillColor=#fff2cc;opacity=50;strokeColor=#d6b656;" vertex="1" parent="1">
          <mxGeometry x="680" y="100" width="40" height="60" as="geometry" />
        </mxCell>
        <mxCell id="jLuUw6s6XqRlDvAC9cUW-50" value="&lt;font style=&quot;font-size: 7px;&quot;&gt;Devices:&lt;br&gt;5x Actuators&lt;br&gt;&lt;/font&gt;" style="rounded=0;whiteSpace=wrap;html=1;fillColor=#fff2cc;opacity=50;strokeColor=#d6b656;" vertex="1" parent="1">
          <mxGeometry x="730" y="100" width="40" height="60" as="geometry" />
        </mxCell>
        <mxCell id="jLuUw6s6XqRlDvAC9cUW-53" value="In: Ref&lt;br&gt;Out: Telemetry" style="text;html=1;align=center;verticalAlign=middle;resizable=0;points=[];autosize=1;strokeColor=none;fillColor=none;fontSize=7;fontColor=#000000;labelBackgroundColor=none;" vertex="1" parent="1">
          <mxGeometry x="690" y="330" width="70" height="30" as="geometry" />
        </mxCell>
        <mxCell id="jLuUw6s6XqRlDvAC9cUW-55" style="edgeStyle=orthogonalEdgeStyle;rounded=0;sketch=0;orthogonalLoop=1;jettySize=auto;html=1;entryX=0.5;entryY=0;entryDx=0;entryDy=0;shadow=0;strokeColor=#000000;fontSize=7;fontColor=#000000;startArrow=none;startFill=0;targetPerimeterSpacing=0;" edge="1" parent="1" source="jLuUw6s6XqRlDvAC9cUW-54" target="jLuUw6s6XqRlDvAC9cUW-17">
          <mxGeometry relative="1" as="geometry" />
        </mxCell>
        <mxCell id="jLuUw6s6XqRlDvAC9cUW-54" value="Device:&amp;nbsp;&amp;nbsp;&lt;br&gt;Emlid Reach&amp;nbsp;&lt;br&gt;Basestation" style="rounded=0;whiteSpace=wrap;html=1;fillColor=#fff2cc;opacity=50;strokeColor=#d6b656;" vertex="1" parent="1">
          <mxGeometry x="480" y="100" width="120" height="60" as="geometry" />
        </mxCell>
        <mxCell id="jLuUw6s6XqRlDvAC9cUW-56" value="LoRa&lt;br&gt;Correction" style="text;html=1;align=center;verticalAlign=middle;resizable=0;points=[];autosize=1;strokeColor=none;fillColor=none;fontSize=7;fontColor=#000000;labelBackgroundColor=default;" vertex="1" parent="1">
          <mxGeometry x="510" y="185" width="60" height="30" as="geometry" />
        </mxCell>
        <mxCell id="jLuUw6s6XqRlDvAC9cUW-60" value="&lt;font color=&quot;#cc0000&quot;&gt;Actuator Reference&lt;br&gt;std_msgs/Float32MultiArray&lt;br&gt;&lt;/font&gt;" style="text;html=1;align=center;verticalAlign=middle;resizable=0;points=[];autosize=1;fontSize=12;rotation=-30;labelBackgroundColor=default;" vertex="1" parent="1">
          <mxGeometry x="720" y="565" width="170" height="40" as="geometry" />
        </mxCell>
        <mxCell id="jLuUw6s6XqRlDvAC9cUW-62" value="controller(s)&lt;br&gt;&lt;br&gt;&lt;br&gt;&amp;lt;A single or many ROS nodes&amp;gt;&lt;br&gt;&lt;br&gt;&amp;lt; Different per project&amp;gt;&lt;br&gt;&lt;br&gt;&amp;nbsp;&amp;lt;Some nodes with common functionality &lt;br&gt;delivered by RAS technicians&amp;gt;" style="rounded=0;whiteSpace=wrap;html=1;fillColor=#dae8fc;opacity=50;strokeColor=#6c8ebf;verticalAlign=top;enumerate=1;" vertex="1" parent="1">
          <mxGeometry x="480" y="640" width="320" height="200" as="geometry" />
        </mxCell>
      </root>
    </mxGraphModel>
  </diagram>
</mxfile>
